# xmcd
#
# Track frame offsets: 
#        187
#        14132
#        26530
#        48807
#        62347
#        76740
#        89055
#        103742
#        118877
#        132797
#        148502
#        166037
#
# Disc length: 2416 seconds
#
# Revision: 3
# Processed by: cddbd v1.5.2PL0 Copyright (c) Steve Scherf et al.
# Submitted via: ExactAudioCopyFreeDBPlugin 1.0
#
DISCID=97096e0c
DTITLE=Hicks, Dan, and His Hot Licks - Where's The Money?
DYEAR=1971
DGENRE=Country
TTITLE0=I Feel Like Singing
TTITLE1=Coast To Coast
TTITLE2=News From Up The Street
TTITLE3=Where's The Money?
TTITLE4=Caught In The Rain
TTITLE5=Shorty Falls In Love
TTITLE6=By Hook Or By Crook
TTITLE7=Reelin' Down
TTITLE8=The Buzzard Was Their Friend
TTITLE9=Traffic Jam
TTITLE10=Is This My Happy Home?
TTITLE11=Dig A Little Deeper
EXTD=
EXTT0=
EXTT1=
EXTT2=
EXTT3=
EXTT4=
EXTT5=
EXTT6=
EXTT7=
EXTT8=
EXTT9=
EXTT10=
EXTT11=
PLAYORDER=
